<?xml version="1.0" encoding="UTF-8" standalone="no"?>
<!-- Created with Inkscape (http://www.inkscape.org/) -->

<svg
   width="42.000008"
   height="64.000008"
   viewBox="0 0 11.112501 16.933334"
   version="1.1"
   id="svg8"
   inkscape:version="1.4 (e7c3feb100, 2024-10-09)"
   sodipodi:docname="cassette_flat.svg"
   xml:space="preserve"
   inkscape:export-filename="mako_foreground.png"
   inkscape:export-xdpi="600"
   inkscape:export-ydpi="600"
   xmlns:inkscape="http://www.inkscape.org/namespaces/inkscape"
   xmlns:sodipodi="http://sodipodi.sourceforge.net/DTD/sodipodi-0.dtd"
   xmlns="http://www.w3.org/2000/svg"
   xmlns:svg="http://www.w3.org/2000/svg"
   xmlns:rdf="http://www.w3.org/1999/02/22-rdf-syntax-ns#"
   xmlns:cc="http://creativecommons.org/ns#"
   xmlns:dc="http://purl.org/dc/elements/1.1/"><defs
     id="defs2" /><sodipodi:namedview
     id="base"
     pagecolor="#ffffff"
     bordercolor="#666666"
     borderopacity="1.0"
     inkscape:pageopacity="0.0"
     inkscape:pageshadow="2"
     inkscape:zoom="8.2673167"
     inkscape:cx="34.291658"
     inkscape:cy="32.416806"
     inkscape:document-units="px"
     inkscape:current-layer="layer1"
     showgrid="true"
     units="px"
     borderlayer="true"
     inkscape:showpageshadow="false"
     inkscape:window-width="1180"
     inkscape:window-height="1000"
     inkscape:window-x="0"
     inkscape:window-y="0"
     inkscape:window-maximized="0"
     inkscape:snap-bbox="true"
     inkscape:object-nodes="false"
     inkscape:snap-others="false"
     fit-margin-top="0"
     fit-margin-left="0"
     fit-margin-right="0"
     fit-margin-bottom="0"
     inkscape:pagecheckerboard="false"
     inkscape:snap-bbox-midpoints="false"
     inkscape:snap-bbox-edge-midpoints="false"
     inkscape:bbox-nodes="true"
     inkscape:deskcolor="#d1d1d1"
     showguides="false"><inkscape:grid
       type="xygrid"
       id="grid815"
       spacingx="0.52916667"
       spacingy="0.52916667"
       empspacing="1"
       dotted="false"
       originx="-1.5875"
       originy="0"
       units="px" /></sodipodi:namedview><metadata
     id="metadata5"><rdf:RDF><cc:Work
         rdf:about=""><dc:format>image/svg+xml</dc:format><dc:type
           rdf:resource="http://purl.org/dc/dcmitype/StillImage" /></cc:Work></rdf:RDF></metadata><g
     inkscape:groupmode="layer"
     id="layer1"
     inkscape:label="Layer 1"
     transform="translate(-1.5875002)"><path
       id="rect370"
       style="fill:#242e38;fill-opacity:1;stroke-width:4.303;stroke-linecap:square"
       d="M 11.112499,0 V 0.52916662 H 10.583333 V 1.0583332 h -3.175 V 1.5874999 H 6.3499998 V 2.1166665 H 5.8208332 V 2.6458331 H 5.2916665 V 3.1749997 H 4.7624999 v 0.5291666 8.4666657 h 0.5291666 v 0.529167 h 0.5291667 v 0.529167 h 0.5291666 v 0.529166 H 7.408333 v 0.529167 h 1.0583333 v 0.529166 h 1.0583332 v 0.529167 h 1.0583335 v 0.529167 h 0.529166 v 1.058333 h 1.5875 V 15.345832 14.816665 14.287499 13.758332 1.5874999 1.0583332 0 Z"
       sodipodi:nodetypes="cccccccccccccccccccccccccccccccccccccccc" /><path
       id="path117"
       style="fill:#c2dae4;fill-opacity:1;stroke-width:4.303;stroke-linecap:square"
       d="m 4.7625003,4.233333 v 7.408333 H 5.2916669 5.8208335 6.3500002 6.8791668 V 11.112499 H 7.4083334 7.9375 V 10.583332 H 8.4666666 V 10.054166 H 8.9958333 V 9.5249992 8.9958325 H 9.5249999 V 8.4666659 7.9374993 7.4083327 6.8791661 H 8.9958333 V 6.3499994 5.8208328 H 8.4666666 V 5.2916662 H 7.9375 V 4.7624996 H 7.4083334 6.8791668 V 4.233333 H 6.3500002 5.8208335 5.2916669 Z" /><path
       id="rect1"
       style="fill:#062940;fill-opacity:1;stroke-width:5.27008;stroke-linecap:square"
       d="M 5.2916669,6.3499995 V 6.8791662 H 4.7625003 V 7.4083328 8.466666 8.9958327 H 5.2916669 V 9.5249993 H 6.3500002 V 8.9958327 H 6.8791668 V 8.466666 H 7.4083334 V 7.4083328 H 6.8791668 V 6.8791662 H 6.3500002 V 6.3499995 Z" /><path
       id="rect136"
       style="fill:#434862;fill-opacity:1;stroke-width:4.303;stroke-linecap:square"
       d="M 5.2916669,2.6458331 V 3.1749998 H 4.7625003 V 3.7041664 4.233333 H 5.2916669 5.8208336 6.3500002 6.8791668 V 4.7624996 H 7.4083334 7.9375001 V 5.2916663 H 8.4666667 V 5.8208329 H 8.9958333 V 6.3499995 6.8791662 H 9.5249999 V 7.4083328 7.9374994 8.466666 8.9958327 H 8.9958333 V 9.5249993 10.054166 H 8.4666667 v 0.529167 H 7.9375001 v 0.529166 H 7.4083334 6.8791668 v 0.529167 H 6.3500002 5.8208336 5.2916669 4.7625003 v 0.529166 h 0.5291666 v 0.529167 h 0.5291667 v 0.529167 h 0.5291666 0.5291666 0.5291666 v -0.529167 h 0.5291667 0.5291666 v -0.529167 h 0.5291666 v -0.529166 h 0.5291666 v -0.529167 h 0.5291671 v -0.529166 h 0.529166 V 10.054166 9.5249993 H 11.1125 V 8.9958327 8.466666 7.9374994 7.4083328 6.8791662 6.3499995 H 10.583333 V 5.8208329 5.2916663 H 10.054167 V 4.7624996 H 9.5249999 V 4.233333 H 8.9958333 V 3.7041664 H 8.4666667 V 3.1749998 H 7.9375001 7.4083334 V 2.6458331 H 6.8791668 6.3500002 5.8208336 Z" /><path
       id="rect631"
       style="fill:#d78030;fill-opacity:1;stroke-width:4.303;stroke-linecap:square"
       d="M 7.408332,4.7624998 V 5.2916664 H 7.937498 V 4.7624998 Z M 7.937498,5.2916664 V 5.820833 H 8.466665 V 5.2916664 Z M 8.466665,5.820833 V 6.3499997 H 8.995831 V 5.820833 Z" /><path
       id="path633"
       style="fill:#d78030;fill-opacity:1;stroke-width:4.303;stroke-linecap:square"
       d="M 8.995833,9.5250007 H 8.466667 V 10.054167 H 8.995833 Z M 8.466667,10.054167 H 7.9375 v 0.529167 H 8.466667 Z M 7.9375,10.583334 H 7.408334 V 11.1125 H 7.9375 Z" /></g></svg>
