<?xml version="1.0" encoding="UTF-8" standalone="no"?>
<!-- Created with Inkscape (http://www.inkscape.org/) -->

<svg
   width="128"
   height="128"
   viewBox="0 0 33.866664 33.866666"
   version="1.1"
   id="svg8"
   inkscape:version="1.4 (e7c3feb100, 2024-10-09)"
   sodipodi:docname="tui_icon_outline.svg"
   xml:space="preserve"
   inkscape:export-filename="mako_foreground.png"
   inkscape:export-xdpi="600"
   inkscape:export-ydpi="600"
   xmlns:inkscape="http://www.inkscape.org/namespaces/inkscape"
   xmlns:sodipodi="http://sodipodi.sourceforge.net/DTD/sodipodi-0.dtd"
   xmlns="http://www.w3.org/2000/svg"
   xmlns:svg="http://www.w3.org/2000/svg"
   xmlns:rdf="http://www.w3.org/1999/02/22-rdf-syntax-ns#"
   xmlns:cc="http://creativecommons.org/ns#"
   xmlns:dc="http://purl.org/dc/elements/1.1/"><defs
     id="defs2" /><sodipodi:namedview
     id="base"
     pagecolor="#ffffff"
     bordercolor="#666666"
     borderopacity="1.0"
     inkscape:pageopacity="0.0"
     inkscape:pageshadow="2"
     inkscape:zoom="3.2569729"
     inkscape:cx="58.64341"
     inkscape:cy="47.283169"
     inkscape:document-units="px"
     inkscape:current-layer="layer1"
     showgrid="true"
     units="px"
     borderlayer="true"
     inkscape:showpageshadow="false"
     inkscape:window-width="1180"
     inkscape:window-height="1000"
     inkscape:window-x="0"
     inkscape:window-y="0"
     inkscape:window-maximized="0"
     inkscape:snap-bbox="true"
     inkscape:object-nodes="false"
     inkscape:snap-others="false"
     fit-margin-top="0"
     fit-margin-left="0"
     fit-margin-right="0"
     fit-margin-bottom="0"
     inkscape:pagecheckerboard="false"
     inkscape:snap-bbox-midpoints="false"
     inkscape:snap-bbox-edge-midpoints="false"
     inkscape:bbox-nodes="true"
     inkscape:deskcolor="#d1d1d1"
     showguides="false"><inkscape:grid
       type="xygrid"
       id="grid815"
       spacingx="0.52916667"
       spacingy="0.52916667"
       empspacing="1"
       dotted="false"
       originx="0"
       originy="0"
       units="px" /></sodipodi:namedview><metadata
     id="metadata5"><rdf:RDF><cc:Work
         rdf:about=""><dc:format>image/svg+xml</dc:format><dc:type
           rdf:resource="http://purl.org/dc/dcmitype/StillImage" /></cc:Work></rdf:RDF></metadata><g
     inkscape:groupmode="layer"
     id="layer1"
     inkscape:label="Layer 1"><path
       id="rect469"
       style="fill:#8bbb52;fill-opacity:1;stroke:none;stroke-width:4.303;stroke-linecap:square"
       d="M 1.0583333,0 V 1.0583333 H 0 V 32.808332 h 1.0583333 v 1.058333 H 32.808332 v -1.058333 h 1.058333 V 1.0583333 H 32.808332 V 0 Z M 2.1166666,1.0583333 H 31.749998 v 1.0583333 h 1.058334 V 31.749998 h -0.529167 -0.529167 v 0.529167 0.529167 H 2.1166666 V 31.749998 H 1.0583333 V 2.1166666 H 1.5874999 2.1166666 V 1.5874999 Z M 11.641666,6.3499997 V 6.8791663 H 11.112499 10.583333 V 7.408333 H 10.054166 V 7.9374996 H 9.5249995 V 8.4666662 8.9958329 9.5249995 H 8.9958329 V 10.054166 H 8.4666662 7.9374996 v 0.529167 H 7.408333 6.8791663 v 0.529166 H 7.408333 7.9374996 v 0.529167 h 0.5291666 v 0.529167 0.529166 H 7.9374996 7.408333 6.8791663 v 0.529167 H 6.3499997 v 0.529167 0.529166 0.529167 h 0.5291666 v 0.529167 H 7.408333 v 0.529166 0.529167 0.529166 0.529167 0.529167 0.529166 h 0.5291666 v 0.529167 0.529167 0.529166 h 0.5291666 v 0.529167 0.529167 h 0.5291667 v 0.529166 h 0.5291666 v 0.529167 h 0.5291665 v 0.529167 h 0.529167 v 0.529166 h 0.529166 0.529167 v 0.529167 h 0.529167 0.529166 v 0.529166 h 0.529167 0.529167 v 0.529167 h -0.529167 v 0.529167 h -0.529167 v 0.529166 h -0.529166 v 0.529167 h -0.529167 v 0.529167 h -0.529167 -0.529166 v 0.529166 0.529167 h 0.529166 0.529167 0.529167 0.529166 0.529167 v -0.529167 -0.529166 h -0.529167 v -0.529167 h 0.529167 v -0.529167 h 0.529167 v -0.529166 h 0.529166 v -0.529167 h 0.529167 0.529167 0.529166 0.529167 0.529166 0.529167 v 0.529167 h -0.529167 v 0.529166 0.529167 h -0.529166 v 0.529167 0.529166 h -0.529167 -0.529166 v 0.529167 0.529167 h 0.529166 0.529167 0.529166 0.529167 0.529167 v -0.529167 -0.529167 h -0.529167 v -0.529166 -0.529167 h 0.529167 v -0.529167 -0.529166 h 0.529166 v -0.529167 -0.529167 h 0.529167 v -0.529166 h 0.529167 0.529166 0.529167 v -0.529167 h 0.529167 v -0.529166 h 0.529166 v -0.529167 h 0.529167 0.529167 0.529166 0.529167 0.529166 0.529167 v 0.529167 h 0.529167 0.529166 0.529167 0.529167 0.529166 v 0.529166 h 0.529167 0.529167 0.529166 0.529167 v -0.529166 h 0.529167 v -0.529167 -0.529167 h -0.529167 v -0.529166 h -0.529167 -0.529166 v -0.529167 h -0.529167 -0.529167 v -0.529167 h -0.529166 v -0.529166 h -0.529167 -0.529167 v -0.529167 h 0.529167 V 18.520832 17.991666 17.462499 H 25.929165 V 16.933332 H 25.399999 V 16.404166 H 24.870832 V 15.874999 H 24.341665 V 15.345833 H 23.812499 V 14.816666 H 23.283332 V 14.287499 H 22.754166 V 13.758333 H 22.224999 V 13.229166 H 21.695832 V 12.699999 H 21.166666 V 12.170833 H 20.637499 V 11.641666 H 20.108332 V 11.112499 H 19.579166 V 10.583333 H 19.049999 V 10.054166 9.5249995 H 18.520832 V 8.9958329 H 17.991666 V 8.4666662 H 17.462499 V 7.9374996 H 16.933332 V 7.408333 H 16.404166 V 6.8791663 H 15.874999 15.345833 V 6.3499997 h -0.529167 -0.529167 -0.529166 -0.529167 -0.529167 -0.529166 z m 0.529167,0.5291666 h 0.529166 0.529167 0.529167 0.529166 0.529167 V 7.408333 h 0.529167 0.529166 v 0.5291666 h 0.529167 v 0.5291666 h 0.529166 v 0.5291667 h 0.529167 v 0.5291666 h 0.529167 v 0.5291665 h 0.529166 v 0.529167 0.529166 h 0.529167 v 0.529167 h 0.529167 v 0.529167 h 0.529166 v 0.529166 h 0.529167 v 0.529167 h 0.529167 v 0.529167 h 0.529166 v 0.529166 h 0.529167 v 0.529167 h 0.529167 v 0.529167 h 0.529166 v 0.529166 h 0.529167 v 0.529167 h 0.529166 v 0.529166 h 0.529167 v 0.529167 h 0.529167 v 0.529167 h 0.529166 v 0.529166 h -0.529166 v 0.529167 0.529167 0.529166 h 0.529166 0.529167 v 0.529167 h 0.529167 v 0.529167 h 0.529166 0.529167 v 0.529166 h 0.529167 0.529166 v 0.529167 h -0.529166 v 0.529167 h -0.529167 v -0.529167 h -0.529167 -0.529166 -0.529167 -0.529167 -0.529166 v -0.529167 h -0.529167 -0.529167 -0.529166 -0.529167 -0.529166 -0.529167 -0.529167 -0.529166 v 0.529167 h -0.529167 v 0.529167 h -0.529167 v 0.529166 h -0.529166 -0.529167 -0.529167 v 0.529167 h -0.529166 -0.529167 v 0.529166 H 16.933332 16.404166 15.874999 15.345833 14.816666 14.287499 V 23.812499 H 13.758333 13.229166 V 23.283332 H 12.699999 12.170833 V 22.754166 H 11.641666 11.112499 V 22.224999 H 10.583333 V 21.695832 H 10.054166 V 21.166666 H 9.5249995 V 20.637499 H 8.9958329 V 20.108332 19.579166 H 8.4666662 V 19.049999 18.520832 17.991666 H 7.9374996 V 17.462499 16.933332 16.404166 15.874999 H 8.4666662 V 15.345833 14.816666 14.287499 H 8.9958329 V 13.758333 13.229166 12.699999 12.170833 11.641666 H 9.5249995 V 11.112499 10.583333 10.054166 H 10.054166 V 9.5249995 8.9958329 8.4666662 h 0.529167 V 7.9374996 h 0.529166 V 7.408333 h 0.529167 0.529167 z m 0.529166,2.6458332 v 0.5291665 0.529167 0.529166 h 0.529167 0.529167 V 10.583333 10.054166 9.5249995 h -0.529167 z"
       sodipodi:nodetypes="ccccccccccccccccccccccccccccccccccccccccccccccccccccccccccccccccccccccccccccccccccccccccccccccccccccccccccccccccccccccccccccccccccccccccccccccccccccccccccccccccccccccccccccccccccccccccccccccccccccccccccccccccccccccccccccccccccccccccccccccccccccccccccccccccccccccccccccccccccccccccccccccccccccccccccccccccccccccccccccccccccccccccccccccccccccccccccccccccccccccccccccccccccccccccccccccccccccccccccccccccccccccccccccccccc" /><g
       id="g1304"
       style="fill:#8bbb52;fill-opacity:1"
       transform="translate(0.52916664,1.0583333)" /></g></svg>
